<svg width="80" height="80" viewBox="0 0 80 80" fill="none" xmlns="http://www.w3.org/2000/svg">
<rect width="80" height="80" rx="13.3333" fill="#082F77"/>
<path fill-rule="evenodd" clip-rule="evenodd" d="M19.9974 10H59.9974C67.3612 10 73.3307 15.9695 73.3307 23.3333V50C73.3307 57.3638 67.3612 63.3333 59.9974 63.3333H19.9974C12.6336 63.3333 6.66406 57.3638 6.66406 50V23.3333C6.66406 15.9695 12.6336 10 19.9974 10ZM34.6557 30.4533C35.8266 29.7216 36.1825 28.1792 35.4507 27.0083C34.7189 25.8375 33.1766 25.4816 32.0057 26.2133L23.1951 31.72C19.5395 34.0047 19.5395 39.3286 23.1951 41.6133L32.0057 47.12C33.1766 47.8518 34.7189 47.4958 35.4507 46.325C36.1825 45.1542 35.8266 43.6118 34.6557 42.88L25.845 37.3733C25.3228 37.0469 25.3228 36.2864 25.845 35.96L34.6557 30.4533ZM44.5441 27.0083C43.8123 28.1792 44.1682 29.7216 45.3391 30.4533L54.1497 35.96C54.672 36.2864 54.672 37.0469 54.1497 37.3733L45.3391 42.88C44.1682 43.6118 43.8123 45.1542 44.5441 46.325C45.2758 47.4958 46.8182 47.8518 47.9891 47.12L56.7997 41.6133C60.4553 39.3286 60.4553 34.0047 56.7997 31.72L47.9891 26.2133C46.8182 25.4816 45.2758 25.8375 44.5441 27.0083Z" fill="#01D3D4"/>
<path d="M33.3307 64.1667C31.95 64.1667 30.8307 65.286 30.8307 66.6667C30.8307 68.0474 31.95 69.1667 33.3307 69.1667H46.6641C48.0448 69.1667 49.1641 68.0474 49.1641 66.6667C49.1641 65.286 48.0448 64.1667 46.6641 64.1667H33.3307Z" fill="white"/>
</svg>
