<svg width="80" height="80" viewBox="0 0 80 80" fill="none" xmlns="http://www.w3.org/2000/svg">
<rect width="80" height="80" rx="13.3333" fill="#082F77"/>
<path d="M35.5422 72.8322C30.1836 72.218 25.4787 70.5169 22.1061 68.1312C16.6073 64.6265 12.2051 59.5538 9.52956 53.5429C8.93393 52.2048 9.73518 50.6978 11.15 50.3187C12.4098 49.9811 13.7078 50.6676 14.2539 51.852C15.0373 53.551 15.984 55.1592 17.0737 56.6565C19.1219 50.2566 28.6063 45.4174 39.9972 45.4174C51.3883 45.4174 60.8729 50.2568 62.9208 56.6568C66.3234 51.9818 68.3307 46.226 68.3307 40.0013C68.3307 24.3532 55.6455 11.668 39.9974 11.668C39.1175 11.668 38.2469 11.7081 37.3875 11.7866C36.0899 11.9051 34.8483 11.1242 34.511 9.8656C34.1317 8.44985 35.0376 7.00193 36.4954 6.84973C37.6463 6.72957 38.8147 6.66797 39.9974 6.66797C58.4069 6.66797 73.3307 21.5918 73.3307 40.0013C73.3307 51.8281 67.1714 62.2164 57.8854 68.1333C56.1585 69.3544 54.0825 70.396 51.7484 71.2043C48.0938 72.5813 44.1336 73.3346 39.9974 73.3346C38.8146 73.3346 37.6462 73.273 36.4953 73.1529C36.1416 73.1159 35.8204 73.0027 35.5422 72.8322Z" fill="#01D3D4"/>
<path d="M6.84581 43.5032C6.998 44.9609 8.44593 45.8669 9.86168 45.4875C11.1203 45.1503 11.9012 43.9087 11.7827 42.6111C11.7042 41.7517 11.6641 40.8812 11.6641 40.0013C11.6641 39.1213 11.7042 38.2507 11.7827 37.3911C11.9012 36.0936 11.1203 34.8519 9.86172 34.5147C8.44598 34.1354 6.99806 35.0413 6.84585 36.499C6.72567 37.65 6.66406 38.8185 6.66406 40.0013C6.66406 41.184 6.72566 42.3523 6.84581 43.5032Z" fill="white"/>
<path d="M9.52965 26.4594C8.93401 27.7976 9.73533 29.3045 11.1501 29.6836C12.4099 30.0211 13.7079 29.3347 14.254 28.1503C14.987 26.5607 15.863 25.0505 16.8653 23.6363C17.6195 22.5721 17.5653 21.1045 16.643 20.1822C15.6079 19.1472 13.9035 19.2062 13.0413 20.3892C11.6684 22.2729 10.4882 24.3059 9.52965 26.4594Z" fill="white"/>
<path d="M20.3855 13.045C19.2025 13.9072 19.1435 15.6116 20.1785 16.6467C21.1008 17.569 22.5684 17.6233 23.6326 16.869C25.0468 15.8667 26.557 14.9908 28.1466 14.2579C29.331 13.7117 30.0174 12.4137 29.6799 11.1539C29.3008 9.73914 27.7939 8.93782 26.4558 9.53345C24.3023 10.492 22.2692 11.6722 20.3855 13.045Z" fill="white"/>
<path d="M54.5803 27.9179C54.5803 35.972 48.0512 42.5011 39.9971 42.5011C31.943 42.5011 25.4138 35.972 25.4138 27.9179C25.4138 19.8638 31.943 13.3346 39.9971 13.3346C48.0512 13.3346 54.5803 19.8638 54.5803 27.9179Z" fill="#01D3D4"/>
</svg>
