<svg width="80" height="80" viewBox="0 0 80 80" fill="none" xmlns="http://www.w3.org/2000/svg">
<rect width="80" height="80" rx="13.3333" fill="#082F77"/>
<path d="M19.9974 10H59.9974C62.1292 10 64.1441 10.5003 65.9312 11.3899C66.3922 11.6194 66.6641 12.1009 66.6641 12.6159C66.6641 13.727 65.4432 14.4416 64.3942 14.0753C63.0176 13.5946 61.538 13.3333 59.9974 13.3333H49.9974C42.6336 13.3333 36.6641 19.3029 36.6641 26.6667V56.6667C36.6641 60.3486 33.6793 63.3333 29.9974 63.3333H19.9974C12.6336 63.3333 6.66406 57.3638 6.66406 50V23.3333C6.66406 15.9695 12.6336 10 19.9974 10Z" fill="white"/>
<path d="M56.6641 56.6667C54.8231 56.6667 53.3307 55.1743 53.3307 53.3333C53.3307 51.4924 54.8231 50 56.6641 50C58.505 50 59.9974 51.4924 59.9974 53.3333C59.9974 55.1743 58.505 56.6667 56.6641 56.6667Z" fill="#01D3D4"/>
<path d="M54.9974 33.3333C54.9974 34.2538 55.7436 35 56.6641 35C57.5845 35 58.3307 34.2538 58.3307 33.3333C58.3307 32.4129 57.5845 31.6667 56.6641 31.6667C55.7436 31.6667 54.9974 32.4129 54.9974 33.3333Z" fill="#01D3D4"/>
<path fill-rule="evenodd" clip-rule="evenodd" d="M40.6614 64.1667C40.2305 62.8558 39.9974 61.4551 39.9974 60V30C39.9974 22.6362 45.9669 16.6667 53.3307 16.6667H59.9974C67.3612 16.6667 73.3307 22.6362 73.3307 30V60C73.3307 67.3638 67.3612 73.3333 59.9974 73.3333H53.3307C49.5176 73.3333 46.0784 71.7327 43.6482 69.1667H33.3307C31.95 69.1667 30.8307 68.0474 30.8307 66.6667C30.8307 65.286 31.95 64.1667 33.3307 64.1667H40.6614ZM48.3307 53.3333C48.3307 48.731 52.0617 45 56.6641 45C61.2664 45 64.9974 48.731 64.9974 53.3333C64.9974 57.9357 61.2664 61.6667 56.6641 61.6667C52.0617 61.6667 48.3307 57.9357 48.3307 53.3333ZM56.6641 26.6667C52.9822 26.6667 49.9974 29.6514 49.9974 33.3333C49.9974 37.0152 52.9822 40 56.6641 40C60.346 40 63.3307 37.0152 63.3307 33.3333C63.3307 29.6514 60.346 26.6667 56.6641 26.6667Z" fill="#01D3D4"/>
</svg>
