<svg width="120" height="121" viewBox="0 0 120 121" fill="none" xmlns="http://www.w3.org/2000/svg">
<circle cx="60" cy="60.0352" r="59.6685" fill="#01D3D4" stroke="#01D3D4" stroke-width="0.662983"/>
<mask id="path-2-inside-1_261_22249" fill="white">
<path fill-rule="evenodd" clip-rule="evenodd" d="M27.5092 44.4523C25.3122 44.4523 23.5312 46.2332 23.5312 48.4302V69.5652C23.5312 70.4657 23.889 71.3293 24.5257 71.9661L24.5282 95.5024C24.5284 97.6992 26.3093 99.4799 28.5061 99.4799H91.1585C93.3554 99.4799 95.1364 97.6989 95.1364 95.502V71.9661C95.7731 71.3293 96.1308 70.4657 96.1308 69.5652V48.4302C96.1308 46.2332 94.3499 44.4523 92.1529 44.4523H73.5865V39.1484C66.2937 30.1995 52.371 31.8583 45.938 39.1484V44.4523H27.5092ZM70.6061 40.4627C63.6448 34.4994 56.352 34.8405 49.3906 40.4627V44.4537H70.6061V40.4627Z"/>
</mask>
<path fill-rule="evenodd" clip-rule="evenodd" d="M27.5092 44.4523C25.3122 44.4523 23.5312 46.2332 23.5312 48.4302V69.5652C23.5312 70.4657 23.889 71.3293 24.5257 71.9661L24.5282 95.5024C24.5284 97.6992 26.3093 99.4799 28.5061 99.4799H91.1585C93.3554 99.4799 95.1364 97.6989 95.1364 95.502V71.9661C95.7731 71.3293 96.1308 70.4657 96.1308 69.5652V48.4302C96.1308 46.2332 94.3499 44.4523 92.1529 44.4523H73.5865V39.1484C66.2937 30.1995 52.371 31.8583 45.938 39.1484V44.4523H27.5092ZM70.6061 40.4627C63.6448 34.4994 56.352 34.8405 49.3906 40.4627V44.4537H70.6061V40.4627Z" fill="#36497A"/>
<path d="M24.5257 71.9661L25.1887 71.966L25.1887 71.6914L24.9945 71.4973L24.5257 71.9661ZM24.5282 95.5024L23.8652 95.5025L23.8652 95.5025L24.5282 95.5024ZM95.1364 71.9661L94.6676 71.4973L94.4734 71.6915V71.9661H95.1364ZM73.5865 44.4523H72.9235V45.1152H73.5865V44.4523ZM73.5865 39.1484H74.2495V38.9125L74.1004 38.7296L73.5865 39.1484ZM45.938 39.1484L45.4409 38.7097L45.275 38.8977V39.1484H45.938ZM45.938 44.4523V45.1152H46.601V44.4523H45.938ZM49.3906 40.4627L48.9741 39.9469L48.7276 40.1459V40.4627H49.3906ZM70.6061 40.4627H71.2691V40.1576L71.0374 39.9592L70.6061 40.4627ZM49.3906 44.4537H48.7276V45.1167H49.3906V44.4537ZM70.6061 44.4537V45.1167H71.2691V44.4537H70.6061ZM24.1942 48.4302C24.1942 46.5994 25.6784 45.1152 27.5092 45.1152V43.7893C24.9461 43.7893 22.8683 45.8671 22.8683 48.4302H24.1942ZM24.1942 69.5652V48.4302H22.8683V69.5652H24.1942ZM24.9945 71.4973C24.4821 70.9849 24.1942 70.2899 24.1942 69.5652H22.8683C22.8683 70.6416 23.2958 71.6738 24.0569 72.4349L24.9945 71.4973ZM25.1912 95.5023L25.1887 71.966L23.8627 71.9662L23.8652 95.5025L25.1912 95.5023ZM28.5061 98.8169C26.6755 98.8169 25.1914 97.333 25.1912 95.5023L23.8652 95.5025C23.8655 98.0654 25.9432 100.143 28.5061 100.143V98.8169ZM91.1585 98.8169H28.5061V100.143H91.1585V98.8169ZM94.4734 95.502C94.4734 97.3328 92.9892 98.8169 91.1585 98.8169V100.143C93.7215 100.143 95.7993 98.0651 95.7993 95.502H94.4734ZM94.4734 71.9661V95.502H95.7993V71.9661H94.4734ZM95.4679 69.5652C95.4679 70.2899 95.18 70.9849 94.6676 71.4973L95.6052 72.4349C96.3663 71.6738 96.7938 70.6416 96.7938 69.5652H95.4679ZM95.4679 48.4302V69.5652H96.7938V48.4302H95.4679ZM92.1529 45.1152C93.9837 45.1152 95.4679 46.5994 95.4679 48.4302H96.7938C96.7938 45.8671 94.716 43.7893 92.1529 43.7893V45.1152ZM73.5865 45.1152H92.1529V43.7893H73.5865V45.1152ZM72.9235 39.1484V44.4523H74.2495V39.1484H72.9235ZM46.4351 39.5871C49.5178 36.0937 54.4283 33.9223 59.4663 33.7212C64.4924 33.5207 69.5803 35.2819 73.0726 39.5672L74.1004 38.7296C70.2999 34.066 64.7801 32.1822 59.4134 32.3963C54.0585 32.61 48.7912 34.913 45.4409 38.7097L46.4351 39.5871ZM46.601 44.4523V39.1484H45.275V44.4523H46.601ZM27.5092 45.1152H45.938V43.7893H27.5092V45.1152ZM49.8072 40.9784C53.2068 38.2328 56.6309 36.8214 60.0063 36.7811C63.3755 36.7408 66.7883 38.0652 70.1748 40.9662L71.0374 39.9592C67.4626 36.8969 63.7483 35.4102 59.9904 35.4552C56.2387 35.5001 52.5357 37.0704 48.9741 39.9469L49.8072 40.9784ZM50.0536 44.4537V40.4627H48.7276V44.4537H50.0536ZM70.6061 43.7907H49.3906V45.1167H70.6061V43.7907ZM69.9431 40.4627V44.4537H71.2691V40.4627H69.9431Z" fill="#1C2C58" mask="url(#path-2-inside-1_261_22249)"/>
<rect x="25.1953" y="73.625" width="69.6133" height="2.65193" fill="black" fill-opacity="0.4"/>
<rect x="52.375" y="68.9844" width="14.5856" height="8.61878" fill="#F4B81B"/>
<path d="M52.3785 15.2812H66.9641V22.2426L70.9244 27.1929C72.6186 29.3107 73.3018 32.0636 72.7943 34.7279L72.268 37.4912L69.2846 35.8337V41.1388C69.2846 41.9893 68.9913 42.8519 68.3012 43.349C66.9602 44.315 65.9574 43.8831 64.3122 42.4636C62.4485 44.7428 61.3099 44.2214 59.3398 42.4636C57.6107 44.7739 56.5479 44.1431 54.6989 42.4636C53.8563 43.5175 53.1724 44.0227 52.438 44.0286C50.3997 44.0449 49.7266 41.3038 49.7266 39.2655V29.0372C49.7266 27.4189 50.22 25.8392 51.1412 24.5087L52.71 22.2426L52.3785 15.2812Z" fill="#F9BDA9"/>
<path d="M49.7266 0.911677C57.7215 -0.279263 62.0329 -0.286768 69.6161 0.791784V16.62H49.7266V0.911677Z" fill="#36497A"/>
</svg>
