<svg width="121" height="121" viewBox="0 0 121 121" fill="none" xmlns="http://www.w3.org/2000/svg">
<circle cx="60.5" cy="60.5" r="60" fill="#01D3D4"/>
<path d="M11.7509 43.5292C11.4659 42.0886 12.4059 40.6907 13.8475 40.4112L95.7207 24.5339C97.1461 24.2574 98.5287 25.1786 98.8226 26.6005L110.016 80.7507C110.314 82.1945 109.378 83.6046 107.931 83.8895L25.6413 100.097C24.2051 100.38 22.8113 99.4459 22.5273 98.01L11.7509 43.5292Z" fill="#243665"/>
<line x1="17.6726" y1="47.2485" x2="94.5787" y2="32.6629" stroke="white" stroke-opacity="0.5" stroke-width="0.662983"/>
<line x1="19.0007" y1="53.8774" x2="95.9068" y2="39.2918" stroke="white" stroke-opacity="0.5" stroke-width="0.662983"/>
<line x1="20.3289" y1="60.5063" x2="97.2349" y2="45.9207" stroke="white" stroke-opacity="0.5" stroke-width="0.662983"/>
<line x1="21.6492" y1="67.1353" x2="98.5552" y2="52.5496" stroke="white" stroke-opacity="0.5" stroke-width="0.662983"/>
<line x1="22.9773" y1="73.7642" x2="99.8834" y2="59.1785" stroke="white" stroke-opacity="0.5" stroke-width="0.662983"/>
<line x1="24.3054" y1="80.3931" x2="101.211" y2="65.8074" stroke="white" stroke-opacity="0.5" stroke-width="0.662983"/>
<line x1="25.6335" y1="87.022" x2="102.54" y2="72.4363" stroke="white" stroke-opacity="0.5" stroke-width="0.662983"/>
<line x1="26.9539" y1="93.6548" x2="103.86" y2="79.0691" stroke="#FF0000" stroke-width="0.662983"/>
<line x1="18.0604" y1="46.8505" x2="26.6792" y2="93.9223" stroke="#FF0000" stroke-width="0.662983"/>
<path d="M24.0438 46.1855L32.9872 92.3226" stroke="black" stroke-width="0.662983"/>
<path d="M24.0438 46.1855L32.9872 92.3226" stroke="white" stroke-opacity="0.5" stroke-width="0.662983"/>
<path d="M30.3329 45.0097L39.2762 91.1468" stroke="white" stroke-opacity="0.5" stroke-width="0.662983"/>
<path d="M36.6297 43.83L45.5731 89.9671" stroke="white" stroke-opacity="0.5" stroke-width="0.662983"/>
<path d="M42.9266 42.6503L51.87 88.7874" stroke="white" stroke-opacity="0.5" stroke-width="0.662983"/>
<path d="M49.2157 41.4745L58.159 87.6116" stroke="white" stroke-opacity="0.5" stroke-width="0.662983"/>
<path d="M55.5047 40.2949L64.4481 86.4319" stroke="white" stroke-opacity="0.5" stroke-width="0.662983"/>
<path d="M61.8016 39.1152L70.745 85.2522" stroke="white" stroke-opacity="0.5" stroke-width="0.662983"/>
<path d="M68.0985 37.9355L77.0418 84.0726" stroke="white" stroke-opacity="0.5" stroke-width="0.662983"/>
<path d="M74.3876 36.7597L83.3309 82.8968" stroke="white" stroke-opacity="0.5" stroke-width="0.662983"/>
<path d="M80.6766 35.58L89.62 81.7171" stroke="white" stroke-opacity="0.5" stroke-width="0.662983"/>
<path d="M86.9735 34.4003L95.9168 80.5374" stroke="white" stroke-opacity="0.5" stroke-width="0.662983"/>
<path d="M94.6399 32.3223L103.589 79.2113" stroke="white" stroke-opacity="0.5" stroke-width="0.662983"/>
<path d="M53.1989 65.467L53.3779 65.188L52.9658 64.9236L52.8734 65.4044L53.1989 65.467ZM57.8444 68.4479L57.6653 68.7269L58.0565 68.9779L58.1665 68.5263L57.8444 68.4479ZM51.5419 74.0863L51.398 74.3849L51.7861 74.5718L51.8674 74.1488L51.5419 74.0863ZM42.5972 69.7791L42.741 69.4804L42.5351 69.3813L42.3692 69.5385L42.5972 69.7791ZM36.2991 75.7462L36.0711 75.5056L36.0088 75.5646L35.983 75.6464L36.2991 75.7462ZM32.3212 88.3429L32.0247 88.4912L32.3908 89.2233L32.6373 88.4427L32.3212 88.3429ZM30.0007 83.702L30.2972 83.5538L29.9817 82.9228L29.6974 83.5684L30.0007 83.702ZM83.0394 52.2103L83.0394 52.5418L83.26 52.5418L83.3452 52.3383L83.0394 52.2103ZM89.313 37.8305C89.2436 37.6611 89.05 37.58 88.8805 37.6494L86.12 38.7808C85.9506 38.8502 85.8695 39.0439 85.9389 39.2133C86.0084 39.3827 86.202 39.4637 86.3714 39.3943L88.8252 38.3886L89.8309 40.8425C89.9003 41.0119 90.094 41.0929 90.2634 41.0235C90.4328 40.9541 90.5138 40.7604 90.4444 40.591L89.313 37.8305ZM73.7576 52.2103L73.7576 51.8788L73.5859 51.8788L73.4868 52.0191L73.7576 52.2103ZM69.7797 57.8457L69.5089 57.6545L69.4732 57.7051L69.4581 57.7653L69.7797 57.8457ZM68.4538 63.1495L68.2303 63.3943L68.6406 63.769L68.7754 63.2299L68.4538 63.1495ZM60.8295 56.1882L61.053 55.9434L60.6398 55.5661L60.5074 56.1098L60.8295 56.1882ZM53.0199 65.746L57.6653 68.7269L58.0234 68.1689L53.3779 65.188L53.0199 65.746ZM51.8674 74.1488L53.5244 65.5296L52.8734 65.4044L51.2163 74.0237L51.8674 74.1488ZM42.4534 70.0778L51.398 74.3849L51.6857 73.7876L42.741 69.4804L42.4534 70.0778ZM36.5271 75.9869L42.8252 70.0197L42.3692 69.5385L36.0711 75.5056L36.5271 75.9869ZM32.6373 88.4427L36.6152 75.846L35.983 75.6464L32.0051 88.2431L32.6373 88.4427ZM26.656 92.1174L30.3041 83.8357L29.6974 83.5684L26.0493 91.8502L26.656 92.1174ZM29.7042 83.8503L32.0247 88.4912L32.6177 88.1947L30.2972 83.5538L29.7042 83.8503ZM83.3452 52.3383L89.312 38.0842L88.7005 37.8282L82.7336 52.0823L83.3452 52.3383ZM73.7576 52.5418L83.0394 52.5418L83.0394 51.8788L73.7576 51.8788L73.7576 52.5418ZM70.0506 58.0368L74.0285 52.4015L73.4868 52.0191L69.5089 57.6545L70.0506 58.0368ZM68.7754 63.2299L70.1013 57.9261L69.4581 57.7653L68.1322 63.0691L68.7754 63.2299ZM58.1665 68.5263L61.1515 56.2666L60.5074 56.1098L57.5223 68.3695L58.1665 68.5263ZM60.6059 56.433L68.2303 63.3943L68.6773 62.9047L61.053 55.9434L60.6059 56.433Z" fill="#FF0000"/>
<path d="M78.0751 63.815C75.0924 59.838 78.4067 57.8497 82.3845 61.4945C88.44 68.7936 90.798 69.5402 96.6388 67.4635C93.6843 59.5455 89.415 56.7301 79.2232 57.0558C77.7546 57.1027 76.0333 55.9883 76.9475 54.838C77.35 54.3316 78.0129 53.9337 78.8474 53.562C81.1329 52.5438 83.6671 52.2148 86.1691 52.2148H91.3917C93.9388 52.2148 96.419 53.0298 98.4697 54.5405L106.25 60.2722C107.318 61.0585 108.052 62.2159 108.308 63.5165L112.55 85.0325L97.3017 89.3399L96.6388 86.69C88.139 77.5487 84.136 72.5194 78.0751 63.815Z" fill="#F9BDA9"/>
<path d="M69.1172 56.5229L73.7581 56.1914L73.4266 59.5063L69.1172 56.5229Z" fill="#FFF9E7"/>
<path d="M73.7612 56.1914L77.4076 56.5229C79.0808 57.1857 81.3855 56.5229 85.0319 57.1859L83.0429 62.4897C80.7238 60.7569 79.4332 58.7588 77.0761 60.5008L73.4297 59.5063L73.7612 56.1914Z" fill="#839AC4"/>
<path d="M85.028 57.1836L106.243 63.8134L105.58 68.1228L83.0391 62.4875L85.028 57.1836Z" fill="#C0A400"/>
<path d="M106.93 67.5173L105.978 67.7078L106.5 64.3163L107.214 64.6737L106.93 67.5173Z" fill="#121212" stroke="#121212" stroke-width="0.662983"/>
<path d="M103.364 63.1278L102.263 67.1062L101.937 69.1192C97.7163 67.0352 95.6384 67.4614 91.992 67.4614" stroke="#121212" stroke-width="1.32597"/>
<path d="M93.3203 89.3379L115.862 83.3711C111.309 93.8262 107.556 99.0972 98.6242 106.576L93.3203 89.3379Z" fill="#243665"/>
</svg>
