<svg width="121" height="121" viewBox="0 0 121 121" fill="none" xmlns="http://www.w3.org/2000/svg">
<circle cx="60.5" cy="60.5" r="60" fill="#01D3D4"/>
<path d="M75.2607 53.8826C72.9677 57.1203 70.9031 60.1958 71.389 64.1316H54.9117C55.2126 62.3562 54.7974 60.614 54.0174 58.9011C53.18 57.0623 51.9071 55.2257 50.6027 53.3853C50.5052 53.2477 50.4075 53.1101 50.3098 52.9725C49.093 51.2585 47.8702 49.5362 46.9254 47.767C45.906 45.8583 45.2256 43.9218 45.2256 41.9217V41.9043L45.2238 41.887C44.4126 34.1632 46.062 28.2129 49.2635 24.1994C52.4625 20.1893 57.242 18.0729 62.7793 18.0698C73.8503 18.0636 83.0201 27.8156 81.03 41.8752C80.3441 46.7204 77.8623 50.217 75.557 53.4648C75.4578 53.6045 75.359 53.7437 75.2607 53.8826Z" fill="#F4B81B" stroke="#C18C00" stroke-width="0.662983"/>
<path d="M54.1953 63.4844H72.0959V78.733L63.4771 83.0424L54.1953 78.733V63.4844Z" fill="#F85F31"/>
<path opacity="0.6" d="M59.5076 63.4169C56.1147 54.9263 54.209 50.2869 51.8829 42.9225C54.0348 46.6598 54.7872 46.3042 55.8624 44.2551C57.1561 42.1326 57.6414 42.7153 58.5143 44.2551C59.881 46.5968 60.5404 46.2545 61.8292 44.2551C62.8255 42.5225 63.4045 42.4868 64.4811 44.2551C65.4313 46.302 66.0983 46.5181 67.4646 44.2551C68.5258 42.0896 69.2641 42.5976 70.448 44.2551C72.1054 46.5755 72.4369 45.9125 74.7574 42.9291C71.6432 50.8371 69.9086 55.2634 66.4701 63.4169" stroke="black" stroke-width="0.331492"/>
<path opacity="0.6" d="M60.5042 56.8555H63.1561M63.1561 63.4853V56.8555M65.4766 56.8555H63.1561" stroke="black" stroke-width="0.662983"/>
<path d="M43.2667 57.1872C44.4242 54.6341 46.4815 53.8627 49.565 52.2148C53.4173 57.4829 55.26 60.292 54.5374 63.4856V74.0933C61.0253 67.9718 64.6289 65.0766 71.112 60.1706C76.0843 56.1927 81.0567 60.1706 76.0843 66.1375C68.9548 73.2881 67.1341 75.7508 64.8136 80.0601C61.2022 87.0305 59.3579 90.9731 46.9131 96.3032L43.2667 102.27L24.7031 92.3253L43.2667 57.1872Z" fill="#F9BDA9"/>
<path d="M14.506 98.5784L20.8457 88.1177L48.7898 102.74L41.7739 116.772C35.7445 114.612 31.2014 112.538 27.0375 109.777C22.8613 107.008 19.0531 103.54 14.506 98.5784Z" fill="#243665" stroke="#243665" stroke-width="0.662983"/>
</svg>
