<svg width="121" height="121" viewBox="0 0 121 121" fill="none" xmlns="http://www.w3.org/2000/svg">
<circle cx="60.5" cy="60.5" r="60" fill="#01D3D4"/>
<path d="M30.0017 40.6133L39.2835 43.9282L46.2448 43.5967L93.9796 65.4752C99.615 69.7846 96.6591 76.0174 90.0017 76.4144C94.3111 83.3757 90.9981 86.887 85.0294 87.0221C86.1153 93.8102 84.4322 95.3893 78.731 95.6409C80.3885 100.613 77.302 105.628 69.4492 102.271C49.7837 95.3012 39.2312 90.7663 27.0183 73.0995L19.0625 69.1216L30.0017 40.6133Z" fill="#C96B5F"/>
<path d="M52.5507 51.882C53.8701 60.1693 40.9413 64.8101 41.28 58.1803L44.4919 45.5798C45.1659 42.9355 47.2631 40.888 49.9184 40.2584C63.2398 37.0993 66.1693 36.3315 86.3629 39.9483L91.3352 36.9648L102.274 66.7991L96.3076 68.788C94.8582 66.6909 93.7715 65.805 91.0037 64.8101L61.1695 50.8875L52.5507 51.882Z" fill="#F9BDA9"/>
<path d="M36.2921 76.7434C38.6165 72.1019 48.2298 74.0915 44.9109 82.0473C49.2243 73.4285 57.1801 78.7324 54.8556 85.3622C59.832 81.0528 64.8044 85.3622 63.1429 91.3291C66.1304 88.0141 72.7602 91.3291 70.1042 97.6274L67.1208 102.6C63.8099 106.578 57.8431 104.257 58.502 98.2904C55.5226 102.6 48.2298 98.9534 49.8832 93.981C43.5889 98.9534 39.611 93.981 40.933 89.1744C37.6228 93.6495 29.3339 88.6771 31.9827 84.3677L36.2921 76.7434Z" fill="#F9BDA9"/>
<path d="M88.3438 36.9631L110.885 28.6758C119.437 42.8183 120.83 52.2117 120.167 62.8194L101.272 69.7808L88.3438 36.9631Z" fill="#F4B81B"/>
<path d="M10.1301 28.0117L33.3345 36.299L19.0804 73.0946L0.848335 67.7907C-0.211 48.6989 3.14275 40.9945 10.1301 28.0117Z" fill="#243665"/>
</svg>
