<svg width="70" height="70" viewBox="0 0 70 70" fill="none" xmlns="http://www.w3.org/2000/svg">
<path d="M8.7474 55.4154H2.91406V52.4987C2.91406 47.0625 6.63215 42.4947 11.6641 41.1996M17.4974 31.5841C14.0989 30.3829 11.6641 27.1418 11.6641 23.332C11.6641 19.5222 14.0989 16.2811 17.4974 15.0799M61.2474 55.4154H67.0807V52.4987C67.0807 47.0625 63.3626 42.4947 58.3307 41.1996M52.4974 15.0799C55.8959 16.2811 58.3307 19.5222 58.3307 23.332C58.3307 27.1418 55.8959 30.3829 52.4974 31.5841M29.1641 40.832H40.8307C47.2741 40.832 52.4974 46.0554 52.4974 52.4987V55.4154H17.4974V52.4987C17.4974 46.0554 22.7207 40.832 29.1641 40.832ZM43.7474 23.332C43.7474 28.1645 39.8299 32.082 34.9974 32.082C30.1649 32.082 26.2474 28.1645 26.2474 23.332C26.2474 18.4995 30.1649 14.582 34.9974 14.582C39.8299 14.582 43.7474 18.4995 43.7474 23.332Z" stroke="#233866" stroke-width="4.375" stroke-linecap="round" stroke-linejoin="round"/>
</svg>
