<svg width="70" height="70" viewBox="0 0 70 70" fill="none" xmlns="http://www.w3.org/2000/svg">
<path d="M34.9974 40.8333V35M34.9974 40.8333V46.6667M34.9974 40.8333H52.4974C55.7191 40.8333 58.3307 38.2217 58.3307 35M34.9974 40.8333H17.4974C14.2757 40.8333 11.6641 38.2217 11.6641 35V23.3333C11.6641 20.1117 14.2757 17.5 17.4974 17.5H52.4974C55.7191 17.5 58.3307 20.1117 58.3307 23.3333M58.3307 35V52.5C58.3307 55.7217 55.7191 58.3333 52.4974 58.3333H17.4974C14.2757 58.3333 11.6641 55.7217 11.6641 52.5V49.5833M58.3307 35V32.0833M43.7474 17.5V14.5833C43.7474 11.3617 41.1357 8.75 37.9141 8.75H32.0807C28.8591 8.75 26.2474 11.3617 26.2474 14.5833V17.5" stroke="#233866" stroke-width="4.375" stroke-linecap="round" stroke-linejoin="round"/>
</svg>
