<svg width="71" height="70" viewBox="0 0 71 70" fill="none" xmlns="http://www.w3.org/2000/svg">
<path d="M26.75 26.25H44.25M26.75 26.25V43.75M26.75 26.25H18C13.1675 26.25 9.25 22.3325 9.25 17.5C9.25 12.6675 13.1675 8.75 18 8.75C22.8325 8.75 26.75 12.6675 26.75 17.5M44.25 26.25V43.75M44.25 26.25V17.5C44.25 12.6675 48.1675 8.75 53 8.75C57.8325 8.75 61.75 12.6675 61.75 17.5C61.75 22.3325 57.8325 26.25 53 26.25M44.25 43.75V52.5C44.25 57.3325 48.1675 61.25 53 61.25C57.8325 61.25 61.75 57.3325 61.75 52.5C61.75 47.6675 57.8325 43.75 53 43.75H44.25ZM26.75 43.75H35.5M26.75 43.75L18 43.75C13.1675 43.75 9.25 47.6675 9.25 52.5C9.25 57.3325 13.1675 61.25 18 61.25C22.8325 61.25 26.75 57.3325 26.75 52.5V43.75Z" stroke="#233866" stroke-width="4.375" stroke-linecap="round"/>
</svg>
