<svg width="227" height="40" viewBox="0 0 227 40" fill="none" xmlns="http://www.w3.org/2000/svg">
<path d="M44.9719 2.87037C44.9719 1.77091 44.0806 0.87963 42.9812 0.87963H5.51719L36.1704 31.6204H42.9812C44.0806 31.6204 44.9719 30.7291 44.9719 29.6297V2.87037Z" stroke="#01D3D4" stroke-width="1.75926"/>
<path fill-rule="evenodd" clip-rule="evenodd" d="M2.79772 3.10295C2.84402 1.66801 1.31624 1.11276 0.436611 1.99227C-0.489313 2.91806 0.390316 4.49184 1.59402 4.30665L28.2607 30.9733C28.0292 32.1776 29.557 32.9646 30.4829 32.1313C31.6866 30.9733 30.4366 29.585 29.4181 29.7233L2.79772 3.10295ZM28.7236 31.1126C28.7236 31.5729 29.0967 31.946 29.5569 31.946C30.0172 31.946 30.3903 31.5729 30.3903 31.1126C30.3903 30.6524 30.0172 30.2793 29.5569 30.2793C29.0967 30.2793 28.7236 30.6524 28.7236 31.1126ZM1.40878 3.79781C0.94854 3.79781 0.575445 3.42472 0.575445 2.96448C0.575445 2.50424 0.94854 2.13115 1.40878 2.13115C1.86901 2.13115 2.24211 2.50424 2.24211 2.96448C2.24211 3.42472 1.86901 3.79781 1.40878 3.79781Z" fill="#243665"/>
<path fill-rule="evenodd" clip-rule="evenodd" d="M2.7526 9.21233C2.7989 7.77738 1.27112 7.22213 0.391491 8.10164C-0.534433 9.02744 0.345196 10.6012 1.5489 10.416L22.1201 30.9777C21.8886 32.182 23.4163 32.969 24.3423 32.1357C25.546 30.9777 24.296 29.5894 23.2775 29.7277L2.7526 9.21233ZM22.583 31.1172C22.583 31.5774 22.9561 31.9505 23.4163 31.9505C23.8765 31.9505 24.2496 31.5774 24.2496 31.1172C24.2496 30.6569 23.8765 30.2839 23.4163 30.2839C22.9561 30.2839 22.583 30.6569 22.583 31.1172ZM1.41001 9.90697C0.949768 9.90697 0.576674 9.53388 0.576674 9.07364C0.576674 8.6134 0.949768 8.24031 1.41001 8.24031C1.87024 8.24031 2.24334 8.6134 2.24334 9.07364C2.24334 9.53388 1.87024 9.90697 1.41001 9.90697Z" fill="#243665"/>
<path fill-rule="evenodd" clip-rule="evenodd" d="M2.79948 15.4623C2.84577 14.0274 1.318 13.4721 0.438368 14.3516C-0.487558 15.2774 0.392071 16.8512 1.59577 16.666L15.9169 30.9807C15.6854 32.1849 17.2132 32.9719 18.1392 32.1386C19.3429 30.9807 18.0928 29.5923 17.0743 29.7307L2.79948 15.4623ZM16.3798 31.1201C16.3798 31.5803 16.7529 31.9534 17.2132 31.9534C17.6734 31.9534 18.0465 31.5803 18.0465 31.1201C18.0465 30.6598 17.6734 30.2867 17.2132 30.2867C16.7529 30.2867 16.3798 30.6598 16.3798 31.1201ZM1.41059 16.1085C0.950348 16.1085 0.577253 15.7354 0.577253 15.2752C0.577253 14.8149 0.950348 14.4418 1.41059 14.4418C1.87082 14.4418 2.24392 14.8149 2.24392 15.2752C2.24392 15.7354 1.87082 16.1085 1.41059 16.1085Z" fill="#243665"/>
<path fill-rule="evenodd" clip-rule="evenodd" d="M2.74711 21.6186C2.7934 20.1836 1.26562 19.6284 0.385996 20.5079C-0.53993 21.4337 0.3397 23.0075 1.5434 22.8223L9.79975 30.9372C9.56826 32.1415 11.096 32.9285 12.022 32.0952C13.2257 30.9372 11.9757 29.5489 10.9572 29.6872L2.74711 21.6186ZM10.2627 31.0766C10.2627 31.5368 10.6358 31.9099 11.096 31.9099C11.5562 31.9099 11.9293 31.5368 11.9293 31.0766C11.9293 30.6164 11.5562 30.2433 11.096 30.2433C10.6358 30.2433 10.2627 30.6164 10.2627 31.0766ZM1.40451 22.3122C0.944276 22.3122 0.571179 21.9391 0.571179 21.4788C0.571179 21.0186 0.944276 20.6455 1.40451 20.6455C1.86475 20.6455 2.23785 21.0186 2.23785 21.4788C2.23785 21.9391 1.86475 22.3122 1.40451 22.3122Z" fill="#243665"/>
<path fill-rule="evenodd" clip-rule="evenodd" d="M2.79398 27.7319C2.84028 26.2969 1.3125 25.7417 0.43287 26.6212C-0.493055 27.547 0.386574 29.1207 1.59028 28.9356L3.59662 30.9441C3.36513 32.1484 4.89291 32.9354 5.81884 32.1021C7.02254 30.9441 5.77254 29.5558 4.75403 29.6941L2.79398 27.7319ZM4.05954 31.0835C4.05954 31.5437 4.43263 31.9168 4.89287 31.9168C5.35311 31.9168 5.7262 31.5437 5.7262 31.0835C5.7262 30.6232 5.35311 30.2501 4.89287 30.2501C4.43263 30.2501 4.05954 30.6232 4.05954 31.0835ZM1.40509 28.4261C0.944856 28.4261 0.57176 28.053 0.57176 27.5928C0.57176 27.1326 0.944856 26.7595 1.40509 26.7595C1.86533 26.7595 2.23843 27.1326 2.23843 27.5928C2.23843 28.053 1.86533 28.4261 1.40509 28.4261Z" fill="#243665"/>
<path d="M40.9525 3.61366C41.0266 3.52477 41.1105 3.48032 41.2043 3.48032C41.308 3.48032 41.4142 3.52724 41.5229 3.62106C41.5772 3.67539 41.6216 3.72971 41.6562 3.78403C41.6957 3.83835 41.7155 3.89267 41.7155 3.94699C41.7155 4.03588 41.6834 4.11242 41.6192 4.17662L40.6266 5.33218L38.6932 7.60625V9.09514C38.6932 9.33218 38.5451 9.45069 38.2488 9.45069C37.9574 9.45069 37.8117 9.33218 37.8117 9.09514V3.84329C37.8117 3.60625 37.9574 3.48773 38.2488 3.48773C38.5451 3.48773 38.6932 3.60625 38.6932 3.84329V6.26551L40.9525 3.61366ZM39.9006 7.13218C39.8513 7.06304 39.8266 6.97909 39.8266 6.88032C39.8266 6.73218 39.8883 6.61366 40.0117 6.52477H40.0043C40.1031 6.45563 40.2019 6.42106 40.3006 6.42106C40.3945 6.42106 40.4735 6.47539 40.5377 6.58403L41.9673 8.67292L41.9599 8.66551C42.0043 8.73465 42.0266 8.80872 42.0266 8.88773C42.0266 9.01613 41.9624 9.12971 41.834 9.22847H41.8414C41.7871 9.26304 41.7352 9.2902 41.6858 9.30995C41.6364 9.32971 41.592 9.33958 41.5525 9.33958C41.513 9.33958 41.471 9.32477 41.4266 9.29514C41.3871 9.26551 41.3476 9.22847 41.308 9.18403L39.9006 7.13218ZM39.7673 13.2507L38.1451 18.2285V18.2211C38.1155 18.2951 38.0735 18.3569 38.0192 18.4062C37.9698 18.4507 37.908 18.4729 37.834 18.4729C37.7945 18.4729 37.755 18.468 37.7155 18.4581C37.6809 18.4532 37.6438 18.4458 37.6043 18.4359H37.6117C37.3303 18.347 37.2266 18.189 37.3006 17.9618L38.9895 12.8285C39.0142 12.7495 39.0562 12.6828 39.1155 12.6285C39.1796 12.5742 39.2537 12.5421 39.3377 12.5322C39.4216 12.5174 39.5031 12.5075 39.5821 12.5025C39.6611 12.4927 39.7229 12.4877 39.7673 12.4877C39.8117 12.4877 39.8735 12.4927 39.9525 12.5025C40.0315 12.5075 40.113 12.5149 40.1969 12.5248C40.2661 12.5346 40.3327 12.5717 40.3969 12.6359C40.4661 12.7001 40.5179 12.7643 40.5525 12.8285C40.829 13.6779 41.108 14.5346 41.3895 15.3988C41.6759 16.2581 41.9574 17.1124 42.234 17.9618C42.3031 18.189 42.1994 18.347 41.9229 18.4359C41.8834 18.4458 41.8463 18.4532 41.8117 18.4581C41.7821 18.468 41.7476 18.4729 41.708 18.4729C41.6389 18.4729 41.5747 18.4507 41.5155 18.4062C41.4611 18.3569 41.4216 18.2951 41.3969 18.2211V18.2285L39.7673 13.2507ZM40.3229 16.6285C40.3229 16.7865 40.2661 16.9223 40.1525 17.0359C40.0438 17.1445 39.9105 17.1988 39.7525 17.1988C39.5945 17.1988 39.4611 17.1445 39.3525 17.0359C39.2438 16.9223 39.1895 16.7865 39.1895 16.6285C39.1895 16.4704 39.2438 16.3371 39.3525 16.2285C39.4611 16.1149 39.5945 16.0581 39.7525 16.0581C39.9105 16.0581 40.0438 16.1149 40.1525 16.2285C40.2661 16.3371 40.3229 16.4704 40.3229 16.6285ZM41.1006 21.8433C41.1006 21.6062 41.2463 21.4877 41.5377 21.4877C41.829 21.4877 41.9747 21.6062 41.9747 21.8433V26.9544C41.9747 27.1272 41.8834 27.2532 41.7006 27.3322H41.708C41.629 27.3667 41.5451 27.3939 41.4562 27.4137C41.3673 27.4334 41.2809 27.4433 41.1969 27.4433C41.1327 27.4433 41.0661 27.4359 40.9969 27.4211C40.9278 27.4112 40.8611 27.3939 40.7969 27.3692C40.7377 27.3396 40.6809 27.3025 40.6266 27.2581C40.5772 27.2087 40.5377 27.1495 40.508 27.0803L38.9006 23.0729L38.7006 23.0951V27.0951C38.7006 27.3322 38.5525 27.4507 38.2562 27.4507C37.9648 27.4507 37.8192 27.3322 37.8192 27.0951V21.9914C37.8192 21.789 37.908 21.6532 38.0858 21.584C38.2488 21.5198 38.4216 21.4877 38.6043 21.4877C38.7327 21.4877 38.8611 21.5149 38.9895 21.5692C39.1229 21.6186 39.2241 21.7149 39.2932 21.8581L40.8932 25.8729L41.1006 25.8507V21.8433Z" fill="#01D3D4"/>
<path d="M17.6875 34.5352H28.0579V36.4796C28.0579 37.1444 27.519 37.6833 26.8542 37.6833H18.8912C18.2264 37.6833 17.6875 37.1444 17.6875 36.4796V34.5352Z" fill="#01D3D4"/>
<rect x="14.1641" y="38.7031" width="17.4074" height="1.2963" rx="0.648148" fill="#01D3D4"/>
<path d="M60.6163 9.51209V29.0547H56.6061V9.51209H60.6163ZM69.8793 9.51209L64.7677 18.3232L70.3029 29.0547H65.9256L60.7293 18.6339L65.8973 9.51209H69.8793ZM79.2636 13.6917C79.6966 13.6917 80.0826 13.7576 80.4215 13.8894L79.8002 17.5889C79.4613 17.476 79.113 17.4195 78.7553 17.4195C78.0398 17.4195 77.4844 17.7207 77.0891 18.3232C76.6937 18.9068 76.3925 19.7823 76.1854 20.9496V29.0547H72.3446V14.0871H75.7053L75.9877 16.6288C76.6843 14.6707 77.7762 13.6917 79.2636 13.6917ZM92.8931 21.232C92.8931 21.4391 92.8648 21.938 92.8083 22.7288H85.1551C85.2304 24.1973 85.4846 25.2139 85.9176 25.7788C86.3694 26.3436 86.9907 26.626 87.7815 26.626C88.3275 26.626 88.8358 26.5318 89.3065 26.3436C89.7772 26.1365 90.2855 25.8258 90.8315 25.4116L92.413 27.5297C91.0574 28.8476 89.4289 29.5065 87.5273 29.5065C85.5128 29.5065 83.969 28.8193 82.8958 27.445C81.8227 26.0706 81.2861 24.1502 81.2861 21.6839C81.2861 19.2175 81.7944 17.2595 82.8111 15.8098C83.8278 14.3601 85.2869 13.6352 87.1884 13.6352C88.977 13.6352 90.3702 14.2848 91.3681 15.5839C92.3847 16.8641 92.8931 18.7468 92.8931 21.232ZM89.1653 20.1306C89.1653 18.7751 89.0147 17.796 88.7134 17.1936C88.4122 16.5723 87.9133 16.2616 87.2167 16.2616C86.5765 16.2616 86.087 16.5629 85.7482 17.1653C85.4281 17.7678 85.2304 18.8315 85.1551 20.3565H89.1653V20.1306ZM105.573 25.2704C105.573 25.7599 105.63 26.1177 105.743 26.3436C105.875 26.5695 106.091 26.7578 106.392 26.9084L105.602 29.4501C104.811 29.3559 104.171 29.1582 103.681 28.857C103.192 28.5369 102.825 28.0474 102.58 27.3885C101.714 28.8005 100.49 29.5065 98.9086 29.5065C97.666 29.5065 96.6775 29.0829 95.9433 28.2357C95.209 27.3885 94.8419 26.2683 94.8419 24.8751C94.8419 23.2371 95.3408 21.9945 96.3386 21.1473C97.3553 20.2812 98.8332 19.8482 100.772 19.8482H101.817V18.9445C101.817 18.022 101.667 17.3818 101.366 17.0241C101.064 16.6476 100.547 16.4593 99.8123 16.4593C98.965 16.4593 97.8825 16.7041 96.5646 17.1936L95.6891 14.7366C96.461 14.3789 97.2706 14.1059 98.1178 13.9177C98.965 13.7294 99.7652 13.6352 100.518 13.6352C103.888 13.6352 105.573 15.3391 105.573 18.7468V25.2704ZM100.01 26.7389C100.801 26.7389 101.403 26.193 101.817 25.101V22.0792H101.14C100.274 22.0792 99.6334 22.2863 99.2192 22.7005C98.8238 23.0959 98.6261 23.7172 98.6261 24.5644C98.6261 25.2798 98.7485 25.8258 98.9933 26.2024C99.238 26.5601 99.5769 26.7389 100.01 26.7389ZM113.626 13.6352C114.549 13.6352 115.396 13.7953 116.168 14.1153C116.959 14.4166 117.646 14.859 118.229 15.4427L116.789 17.5325C115.772 16.7982 114.822 16.4311 113.937 16.4311C113.428 16.4311 113.033 16.5629 112.751 16.8264C112.468 17.0712 112.327 17.4289 112.327 17.8996C112.327 18.2197 112.393 18.4927 112.525 18.7186C112.675 18.9257 112.93 19.1422 113.287 19.3681C113.645 19.5752 114.191 19.8294 114.925 20.1306C116.205 20.6389 117.147 21.2414 117.749 21.938C118.352 22.6158 118.653 23.5383 118.653 24.7056C118.653 26.193 118.135 27.3697 117.1 28.2357C116.064 29.0829 114.737 29.5065 113.118 29.5065C112.082 29.5065 111.122 29.3183 110.237 28.9417C109.352 28.5652 108.59 28.038 107.95 27.3602L109.757 25.3552C110.887 26.2777 111.951 26.7389 112.948 26.7389C113.513 26.7389 113.956 26.5883 114.276 26.2871C114.596 25.9859 114.756 25.5717 114.756 25.0445C114.756 24.4609 114.586 24.009 114.247 23.6889C113.909 23.3501 113.212 22.9735 112.158 22.5593C110.859 22.0322 109.927 21.4297 109.362 20.7519C108.816 20.0741 108.543 19.2081 108.543 18.1538C108.543 17.3065 108.741 16.544 109.136 15.8663C109.55 15.1697 110.143 14.6237 110.915 14.2283C111.687 13.8329 112.591 13.6352 113.626 13.6352ZM125.272 14.0871V29.0547H121.432V14.0871H125.272ZM123.352 6.4621C124.011 6.4621 124.548 6.67861 124.962 7.11163C125.376 7.54466 125.583 8.09064 125.583 8.74959C125.583 9.38972 125.376 9.92629 124.962 10.3593C124.548 10.7735 124.011 10.9806 123.352 10.9806C122.674 10.9806 122.128 10.7735 121.714 10.3593C121.3 9.92629 121.093 9.38972 121.093 8.74959C121.093 8.09064 121.3 7.54466 121.714 7.11163C122.128 6.67861 122.674 6.4621 123.352 6.4621ZM144.127 29.0547L143.252 24.5927H138.564L137.688 29.0547H133.734L138.564 9.51209H143.365L148.165 29.0547H144.127ZM139.128 21.6839H142.687L140.908 12.4774L139.128 21.6839ZM157.513 13.6352C158.981 13.6352 160.101 14.313 160.873 15.6686C161.645 17.0241 162.031 18.9822 162.031 21.5427C162.031 23.1618 161.833 24.5738 161.438 25.7788C161.043 26.9649 160.478 27.8874 159.744 28.5464C159.009 29.1865 158.143 29.5065 157.145 29.5065C155.94 29.5065 154.943 28.9794 154.152 27.9251V34.8158L150.311 35.2394V14.0871H153.728L153.898 15.7815C154.368 15.0473 154.896 14.5107 155.479 14.1718C156.082 13.8141 156.759 13.6352 157.513 13.6352ZM156.044 26.626C157.4 26.626 158.077 24.941 158.077 21.5709C158.077 19.6693 157.927 18.3514 157.625 17.6172C157.324 16.8829 156.872 16.5158 156.27 16.5158C155.498 16.5158 154.792 17.0994 154.152 18.2667V25.2987C154.698 26.1835 155.329 26.626 156.044 26.626ZM168.557 29.5065C167.465 29.5065 166.599 29.1771 165.959 28.5181C165.338 27.8592 165.027 26.9649 165.027 25.8352V8.1283L168.868 7.70469V25.6658C168.868 26.1741 169.084 26.4283 169.517 26.4283C169.706 26.4283 169.894 26.3906 170.082 26.3153L170.817 28.97C170.139 29.3277 169.386 29.5065 168.557 29.5065ZM176.972 14.0871V29.0547H173.131V14.0871H176.972ZM175.051 6.4621C175.71 6.4621 176.247 6.67861 176.661 7.11163C177.075 7.54466 177.282 8.09064 177.282 8.74959C177.282 9.38972 177.075 9.92629 176.661 10.3593C176.247 10.7735 175.71 10.9806 175.051 10.9806C174.374 10.9806 173.828 10.7735 173.413 10.3593C172.999 9.92629 172.792 9.38972 172.792 8.74959C172.792 8.09064 172.999 7.54466 173.413 7.11163C173.828 6.67861 174.374 6.4621 175.051 6.4621ZM184.576 7.70469V29.0547H180.735V8.1283L184.576 7.70469ZM192.257 14.0871L188.473 20.6954L192.54 29.0547H188.473L184.689 20.8649L188.558 14.0871H192.257ZM204.153 25.2704C204.153 25.7599 204.21 26.1177 204.323 26.3436C204.455 26.5695 204.671 26.7578 204.972 26.9084L204.182 29.4501C203.391 29.3559 202.751 29.1582 202.261 28.857C201.772 28.5369 201.405 28.0474 201.16 27.3885C200.294 28.8005 199.07 29.5065 197.489 29.5065C196.246 29.5065 195.258 29.0829 194.523 28.2357C193.789 27.3885 193.422 26.2683 193.422 24.8751C193.422 23.2371 193.921 21.9945 194.919 21.1473C195.935 20.2812 197.413 19.8482 199.352 19.8482H200.397V18.9445C200.397 18.022 200.247 17.3818 199.946 17.0241C199.644 16.6476 199.127 16.4593 198.392 16.4593C197.545 16.4593 196.463 16.7041 195.145 17.1936L194.269 14.7366C195.041 14.3789 195.851 14.1059 196.698 13.9177C197.545 13.7294 198.345 13.6352 199.098 13.6352C202.468 13.6352 204.153 15.3391 204.153 18.7468V25.2704ZM198.59 26.7389C199.381 26.7389 199.983 26.193 200.397 25.101V22.0792H199.72C198.854 22.0792 198.213 22.2863 197.799 22.7005C197.404 23.0959 197.206 23.7172 197.206 24.5644C197.206 25.2798 197.329 25.8258 197.573 26.2024C197.818 26.5601 198.157 26.7389 198.59 26.7389ZM212.206 13.6352C213.129 13.6352 213.976 13.7953 214.748 14.1153C215.539 14.4166 216.226 14.859 216.809 15.4427L215.369 17.5325C214.353 16.7982 213.402 16.4311 212.517 16.4311C212.009 16.4311 211.613 16.5629 211.331 16.8264C211.048 17.0712 210.907 17.4289 210.907 17.8996C210.907 18.2197 210.973 18.4927 211.105 18.7186C211.255 18.9257 211.51 19.1422 211.867 19.3681C212.225 19.5752 212.771 19.8294 213.505 20.1306C214.786 20.6389 215.727 21.2414 216.329 21.938C216.932 22.6158 217.233 23.5383 217.233 24.7056C217.233 26.193 216.715 27.3697 215.68 28.2357C214.644 29.0829 213.317 29.5065 211.698 29.5065C210.662 29.5065 209.702 29.3183 208.817 28.9417C207.932 28.5652 207.17 28.038 206.53 27.3602L208.337 25.3552C209.467 26.2777 210.531 26.7389 211.528 26.7389C212.093 26.7389 212.536 26.5883 212.856 26.2871C213.176 25.9859 213.336 25.5717 213.336 25.0445C213.336 24.4609 213.166 24.009 212.828 23.6889C212.489 23.3501 211.792 22.9735 210.738 22.5593C209.439 22.0322 208.507 21.4297 207.942 20.7519C207.396 20.0741 207.123 19.2081 207.123 18.1538C207.123 17.3065 207.321 16.544 207.716 15.8663C208.13 15.1697 208.723 14.6237 209.495 14.2283C210.267 13.8329 211.171 13.6352 212.206 13.6352ZM223.852 14.0871V29.0547H220.012V14.0871H223.852ZM221.932 6.4621C222.591 6.4621 223.128 6.67861 223.542 7.11163C223.956 7.54466 224.163 8.09064 224.163 8.74959C224.163 9.38972 223.956 9.92629 223.542 10.3593C223.128 10.7735 222.591 10.9806 221.932 10.9806C221.254 10.9806 220.708 10.7735 220.294 10.3593C219.88 9.92629 219.673 9.38972 219.673 8.74959C219.673 8.09064 219.88 7.54466 220.294 7.11163C220.708 6.67861 221.254 6.4621 221.932 6.4621Z" fill="#243665"/>
</svg>
