<svg width="46" height="33" viewBox="0 0 46 33" fill="none" xmlns="http://www.w3.org/2000/svg">
<path d="M44.9719 2.87037C44.9719 1.77091 44.0806 0.87963 42.9812 0.87963H5.51719L36.1704 31.6204H42.9812C44.0806 31.6204 44.9719 30.7291 44.9719 29.6297V2.87037Z" stroke="#01D3D4" stroke-width="1.75926"/>
<path fill-rule="evenodd" clip-rule="evenodd" d="M2.79772 3.10295C2.84402 1.66801 1.31624 1.11276 0.436611 1.99227C-0.489313 2.91806 0.390316 4.49184 1.59402 4.30665L28.2607 30.9733C28.0292 32.1776 29.557 32.9646 30.4829 32.1313C31.6866 30.9733 30.4366 29.585 29.4181 29.7233L2.79772 3.10295ZM28.7236 31.1126C28.7236 31.5729 29.0967 31.946 29.5569 31.946C30.0172 31.946 30.3903 31.5729 30.3903 31.1126C30.3903 30.6524 30.0172 30.2793 29.5569 30.2793C29.0967 30.2793 28.7236 30.6524 28.7236 31.1126ZM1.40878 3.79781C0.94854 3.79781 0.575445 3.42472 0.575445 2.96448C0.575445 2.50424 0.94854 2.13115 1.40878 2.13115C1.86901 2.13115 2.24211 2.50424 2.24211 2.96448C2.24211 3.42472 1.86901 3.79781 1.40878 3.79781Z" fill="#243665"/>
<path fill-rule="evenodd" clip-rule="evenodd" d="M2.7526 9.21233C2.7989 7.77738 1.27112 7.22213 0.391491 8.10164C-0.534433 9.02744 0.345196 10.6012 1.5489 10.416L22.1201 30.9777C21.8886 32.182 23.4163 32.969 24.3423 32.1357C25.546 30.9777 24.296 29.5894 23.2775 29.7277L2.7526 9.21233ZM22.583 31.1172C22.583 31.5774 22.9561 31.9505 23.4163 31.9505C23.8765 31.9505 24.2496 31.5774 24.2496 31.1172C24.2496 30.6569 23.8765 30.2839 23.4163 30.2839C22.9561 30.2839 22.583 30.6569 22.583 31.1172ZM1.41001 9.90697C0.949768 9.90697 0.576674 9.53388 0.576674 9.07364C0.576674 8.6134 0.949768 8.24031 1.41001 8.24031C1.87024 8.24031 2.24334 8.6134 2.24334 9.07364C2.24334 9.53388 1.87024 9.90697 1.41001 9.90697Z" fill="#243665"/>
<path fill-rule="evenodd" clip-rule="evenodd" d="M2.79948 15.4623C2.84577 14.0274 1.318 13.4721 0.438368 14.3516C-0.487558 15.2774 0.392071 16.8512 1.59577 16.666L15.9169 30.9807C15.6854 32.1849 17.2132 32.9719 18.1392 32.1386C19.3429 30.9807 18.0928 29.5923 17.0743 29.7307L2.79948 15.4623ZM16.3798 31.1201C16.3798 31.5803 16.7529 31.9534 17.2132 31.9534C17.6734 31.9534 18.0465 31.5803 18.0465 31.1201C18.0465 30.6598 17.6734 30.2867 17.2132 30.2867C16.7529 30.2867 16.3798 30.6598 16.3798 31.1201ZM1.41059 16.1085C0.950348 16.1085 0.577253 15.7354 0.577253 15.2752C0.577253 14.8149 0.950348 14.4418 1.41059 14.4418C1.87082 14.4418 2.24392 14.8149 2.24392 15.2752C2.24392 15.7354 1.87082 16.1085 1.41059 16.1085Z" fill="#243665"/>
<path fill-rule="evenodd" clip-rule="evenodd" d="M2.74711 21.6186C2.7934 20.1836 1.26562 19.6284 0.385996 20.5079C-0.53993 21.4337 0.3397 23.0075 1.5434 22.8223L9.79975 30.9372C9.56826 32.1415 11.096 32.9285 12.022 32.0952C13.2257 30.9372 11.9757 29.5489 10.9572 29.6872L2.74711 21.6186ZM10.2627 31.0766C10.2627 31.5368 10.6358 31.9099 11.096 31.9099C11.5562 31.9099 11.9293 31.5368 11.9293 31.0766C11.9293 30.6164 11.5562 30.2433 11.096 30.2433C10.6358 30.2433 10.2627 30.6164 10.2627 31.0766ZM1.40451 22.3122C0.944276 22.3122 0.571179 21.9391 0.571179 21.4788C0.571179 21.0186 0.944276 20.6455 1.40451 20.6455C1.86475 20.6455 2.23785 21.0186 2.23785 21.4788C2.23785 21.9391 1.86475 22.3122 1.40451 22.3122Z" fill="#243665"/>
<path fill-rule="evenodd" clip-rule="evenodd" d="M2.79398 27.7319C2.84028 26.2969 1.3125 25.7417 0.43287 26.6212C-0.493055 27.547 0.386574 29.1207 1.59028 28.9356L3.59662 30.9441C3.36513 32.1484 4.89291 32.9354 5.81884 32.1021C7.02254 30.9441 5.77254 29.5558 4.75403 29.6941L2.79398 27.7319ZM4.05954 31.0835C4.05954 31.5437 4.43263 31.9168 4.89287 31.9168C5.35311 31.9168 5.7262 31.5437 5.7262 31.0835C5.7262 30.6232 5.35311 30.2501 4.89287 30.2501C4.43263 30.2501 4.05954 30.6232 4.05954 31.0835ZM1.40509 28.4261C0.944856 28.4261 0.57176 28.053 0.57176 27.5928C0.57176 27.1326 0.944856 26.7595 1.40509 26.7595C1.86533 26.7595 2.23843 27.1326 2.23843 27.5928C2.23843 28.053 1.86533 28.4261 1.40509 28.4261Z" fill="#243665"/>
<path d="M40.9525 3.61366C41.0266 3.52477 41.1105 3.48032 41.2043 3.48032C41.308 3.48032 41.4142 3.52724 41.5229 3.62106C41.5772 3.67539 41.6216 3.72971 41.6562 3.78403C41.6957 3.83835 41.7155 3.89267 41.7155 3.94699C41.7155 4.03588 41.6834 4.11242 41.6192 4.17662L40.6266 5.33218L38.6932 7.60625V9.09514C38.6932 9.33218 38.5451 9.45069 38.2488 9.45069C37.9574 9.45069 37.8117 9.33218 37.8117 9.09514V3.84329C37.8117 3.60625 37.9574 3.48773 38.2488 3.48773C38.5451 3.48773 38.6932 3.60625 38.6932 3.84329V6.26551L40.9525 3.61366ZM39.9006 7.13218C39.8513 7.06304 39.8266 6.97909 39.8266 6.88032C39.8266 6.73218 39.8883 6.61366 40.0117 6.52477H40.0043C40.1031 6.45563 40.2019 6.42106 40.3006 6.42106C40.3945 6.42106 40.4735 6.47539 40.5377 6.58403L41.9673 8.67292L41.9599 8.66551C42.0043 8.73465 42.0266 8.80872 42.0266 8.88773C42.0266 9.01613 41.9624 9.12971 41.834 9.22847H41.8414C41.7871 9.26304 41.7352 9.2902 41.6858 9.30995C41.6364 9.32971 41.592 9.33958 41.5525 9.33958C41.513 9.33958 41.471 9.32477 41.4266 9.29514C41.3871 9.26551 41.3476 9.22847 41.308 9.18403L39.9006 7.13218ZM39.7673 13.2507L38.1451 18.2285V18.2211C38.1155 18.2951 38.0735 18.3569 38.0192 18.4062C37.9698 18.4507 37.908 18.4729 37.834 18.4729C37.7945 18.4729 37.755 18.468 37.7155 18.4581C37.6809 18.4532 37.6438 18.4458 37.6043 18.4359H37.6117C37.3303 18.347 37.2266 18.189 37.3006 17.9618L38.9895 12.8285C39.0142 12.7495 39.0562 12.6828 39.1155 12.6285C39.1796 12.5742 39.2537 12.5421 39.3377 12.5322C39.4216 12.5174 39.5031 12.5075 39.5821 12.5025C39.6611 12.4927 39.7229 12.4877 39.7673 12.4877C39.8117 12.4877 39.8735 12.4927 39.9525 12.5025C40.0315 12.5075 40.113 12.5149 40.1969 12.5248C40.2661 12.5346 40.3327 12.5717 40.3969 12.6359C40.4661 12.7001 40.5179 12.7643 40.5525 12.8285C40.829 13.6779 41.108 14.5346 41.3895 15.3988C41.6759 16.2581 41.9574 17.1124 42.234 17.9618C42.3031 18.189 42.1994 18.347 41.9229 18.4359C41.8834 18.4458 41.8463 18.4532 41.8117 18.4581C41.7821 18.468 41.7476 18.4729 41.708 18.4729C41.6389 18.4729 41.5747 18.4507 41.5155 18.4062C41.4611 18.3569 41.4216 18.2951 41.3969 18.2211V18.2285L39.7673 13.2507ZM40.3229 16.6285C40.3229 16.7865 40.2661 16.9223 40.1525 17.0359C40.0438 17.1445 39.9105 17.1988 39.7525 17.1988C39.5945 17.1988 39.4611 17.1445 39.3525 17.0359C39.2438 16.9223 39.1895 16.7865 39.1895 16.6285C39.1895 16.4704 39.2438 16.3371 39.3525 16.2285C39.4611 16.1149 39.5945 16.0581 39.7525 16.0581C39.9105 16.0581 40.0438 16.1149 40.1525 16.2285C40.2661 16.3371 40.3229 16.4704 40.3229 16.6285ZM41.1006 21.8433C41.1006 21.6062 41.2463 21.4877 41.5377 21.4877C41.829 21.4877 41.9747 21.6062 41.9747 21.8433V26.9544C41.9747 27.1272 41.8834 27.2532 41.7006 27.3322H41.708C41.629 27.3667 41.5451 27.3939 41.4562 27.4137C41.3673 27.4334 41.2809 27.4433 41.1969 27.4433C41.1327 27.4433 41.0661 27.4359 40.9969 27.4211C40.9278 27.4112 40.8611 27.3939 40.7969 27.3692C40.7377 27.3396 40.6809 27.3025 40.6266 27.2581C40.5772 27.2087 40.5377 27.1495 40.508 27.0803L38.9006 23.0729L38.7006 23.0951V27.0951C38.7006 27.3322 38.5525 27.4507 38.2562 27.4507C37.9648 27.4507 37.8192 27.3322 37.8192 27.0951V21.9914C37.8192 21.789 37.908 21.6532 38.0858 21.584C38.2488 21.5198 38.4216 21.4877 38.6043 21.4877C38.7327 21.4877 38.8611 21.5149 38.9895 21.5692C39.1229 21.6186 39.2241 21.7149 39.2932 21.8581L40.8932 25.8729L41.1006 25.8507V21.8433Z" fill="#01D3D4"/>
</svg>
